<svg width="19" height="22" viewBox="0 0 19 22" fill="none" xmlns="http://www.w3.org/2000/svg">
<g clip-path="url(#clip0_17_2588)">
<path d="M18.6348 15.5671C17.8154 14.6751 16.2823 13.3332 16.2823 8.9375C16.2823 5.59883 13.9717 2.92617 10.8562 2.27047V1.375C10.8562 0.615742 10.2489 0 9.49995 0C8.75098 0 8.14366 0.615742 8.14366 1.375V2.27047C5.02817 2.92617 2.71763 5.59883 2.71763 8.9375C2.71763 13.3332 1.18448 14.6751 0.365109 15.5671C0.110645 15.8443 -0.00216751 16.1756 -4.69717e-05 16.5C0.00461821 17.2047 0.550444 17.875 1.36134 17.875H17.6386C18.4495 17.875 18.9957 17.2047 19 16.5C19.0021 16.1756 18.8893 15.8439 18.6348 15.5671ZM2.86395 15.8125C3.7639 14.6107 4.74783 12.6186 4.7525 8.96242C4.7525 8.95383 4.74995 8.94609 4.74995 8.9375C4.74995 6.27945 6.87643 4.125 9.49995 4.125C12.1235 4.125 14.25 6.27945 14.25 8.9375C14.25 8.94609 14.2474 8.95383 14.2474 8.96242C14.2521 12.6191 15.236 14.6111 16.136 15.8125H2.86395ZM9.49995 22C10.9979 22 12.213 20.7689 12.213 19.25H6.78694C6.78694 20.7689 8.00201 22 9.49995 22Z" fill="#F52A67"/>
</g>
<defs>
<clipPath id="clip0_17_2588">
<rect width="19" height="22" fill="white"/>
</clipPath>
</defs>
</svg>
