<svg width="25" height="25" viewBox="0 0 25 25" fill="none" xmlns="http://www.w3.org/2000/svg">
<g clip-path="url(#clip0_65_583)">
<path d="M12.5001 1.5625C5.59577 1.5625 6.68068e-05 6.1084 6.68068e-05 11.7188C6.68068e-05 14.043 0.971747 16.1719 2.58307 17.8857C1.85554 19.8096 0.341864 21.4404 0.31745 21.46C-0.00481601 21.8018 -0.0927066 22.2998 0.0928403 22.7295C0.278387 23.1592 0.703192 23.4375 1.17194 23.4375C4.17487 23.4375 6.54304 22.1826 7.96394 21.1768C9.37507 21.6211 10.8985 21.875 12.5001 21.875C19.4044 21.875 25.0001 17.3291 25.0001 11.7188C25.0001 6.1084 19.4044 1.5625 12.5001 1.5625ZM12.5001 19.5312C11.1964 19.5312 9.9073 19.3311 8.67194 18.9404L7.56354 18.5889L6.6114 19.2627C5.91315 19.7559 4.95612 20.3076 3.80378 20.6787C4.16022 20.0879 4.5069 19.4238 4.77546 18.7158L5.29304 17.3438L4.28718 16.2793C3.40339 15.3369 2.34382 13.7793 2.34382 11.7188C2.34382 7.41211 6.89948 3.90625 12.5001 3.90625C18.1007 3.90625 22.6563 7.41211 22.6563 11.7188C22.6563 16.0254 18.1007 19.5312 12.5001 19.5312Z" fill="url(#paint0_linear_65_583)"/>
</g>
<defs>
<linearGradient id="paint0_linear_65_583" x1="0.830268" y1="2.14583" x2="19.981" y2="25.9954" gradientUnits="userSpaceOnUse">
<stop stop-color="#B7F7E4"/>
<stop offset="0.0810791" stop-color="#8EE8CD"/>
<stop offset="0.213292" stop-color="#20E8AC"/>
<stop offset="0.406273" stop-color="#F52A67"/>
<stop offset="0.621192" stop-color="#B11E75"/>
<stop offset="1" stop-color="#220694"/>
</linearGradient>
<clipPath id="clip0_65_583">
<rect width="25" height="25" fill="white"/>
</clipPath>
</defs>
</svg>
