<svg width="23" height="18" viewBox="0 0 23 18" fill="none" xmlns="http://www.w3.org/2000/svg">
<path d="M5.41577 3.26144C7.0078 2.04855 9.04905 1.12499 11.5 1.12499C14.4037 1.12499 16.7289 2.42015 18.4216 3.95859C20.1034 5.48437 21.2283 7.28085 21.7601 8.56757C21.8787 8.84531 21.8787 9.15468 21.7601 9.43241C21.2786 10.568 20.3119 12.1676 18.8887 13.5949L22.6694 16.4918C23.0431 16.7801 23.1114 17.3109 22.8167 17.6766C22.522 18.0422 21.9794 18.109 21.6056 17.8207L0.330475 1.50785C-0.0444252 1.22027 -0.110155 0.690111 0.183706 0.323291C0.477603 -0.0434594 1.01954 -0.10776 1.39473 0.179712L5.41577 3.26144ZM8.01765 5.25585L11.2628 7.74491C11.4137 7.44609 11.5 7.10859 11.5 6.71835C11.5 6.3457 11.3598 5.96601 11.1981 5.63906C11.2987 5.62851 11.3994 5.59335 11.5 5.59335C13.4047 5.59335 14.95 7.10507 14.95 8.96835C14.95 9.48163 14.8458 9.93866 14.6301 10.3535L16.0497 11.4152C16.4486 10.698 16.675 9.87538 16.675 8.96835C16.675 6.20507 14.357 3.90585 11.5 3.90585C10.1595 3.90585 8.93406 4.43671 8.01765 5.25585ZM11.5 16.875C8.59624 16.875 6.27109 15.5812 4.57843 14.0414C2.89727 12.484 1.77315 10.6875 1.2384 9.43241C1.12052 9.15468 1.12052 8.84531 1.2384 8.56757C1.58124 7.76249 2.16666 6.72187 2.98604 5.67773L6.3753 8.28984C6.34296 8.52187 6.32499 8.75741 6.32499 8.96835C6.32499 11.7949 8.64296 14.0625 11.5 14.0625C12.172 14.0625 12.8153 13.9359 13.4047 13.7074L16.0353 15.7324C14.7308 16.4215 13.2178 16.875 11.5 16.875Z" fill="url(#paint0_linear_41_592)"/>
<defs>
<linearGradient id="paint0_linear_41_592" x1="0.766673" y1="0.480005" x2="16.0611" y2="21.7729" gradientUnits="userSpaceOnUse">
<stop stop-color="#B7F7E4"/>
<stop offset="0.0810791" stop-color="#8EE8CD"/>
<stop offset="0.213292" stop-color="#20E8AC"/>
<stop offset="0.406273" stop-color="#F52A67"/>
<stop offset="0.621192" stop-color="#B11E75"/>
<stop offset="1" stop-color="#220694"/>
</linearGradient>
</defs>
</svg>
