<svg width="36" height="31" viewBox="0 0 36 31" fill="none" xmlns="http://www.w3.org/2000/svg">
<g clip-path="url(#clip0_35_104)">
<path d="M17.5451 9.34961L6.55398 18.3879V28.1429C6.55398 28.3955 6.65447 28.6377 6.83335 28.8163C7.01223 28.9949 7.25484 29.0953 7.50781 29.0953L14.1882 29.078C14.4404 29.0767 14.6818 28.9759 14.8596 28.7974C15.0375 28.6189 15.1373 28.3774 15.1373 28.1257V22.4289C15.1373 22.1763 15.2378 21.9341 15.4167 21.7555C15.5955 21.5769 15.8382 21.4765 16.0911 21.4765H19.9065C20.1594 21.4765 20.402 21.5769 20.5809 21.7555C20.7598 21.9341 20.8603 22.1763 20.8603 22.4289V28.1215C20.8599 28.2468 20.8843 28.371 20.932 28.4869C20.9798 28.6027 21.05 28.7081 21.1386 28.7968C21.2272 28.8856 21.3325 28.956 21.4484 29.004C21.5643 29.0521 21.6886 29.0768 21.8141 29.0768L28.4922 29.0953C28.7451 29.0953 28.9877 28.9949 29.1666 28.8163C29.3455 28.6377 29.446 28.3955 29.446 28.1429V18.3814L18.4572 9.34961C18.328 9.24564 18.1671 9.18894 18.0012 9.18894C17.8352 9.18894 17.6743 9.24564 17.5451 9.34961ZM34.9067 15.4928L29.9229 11.3912V3.14688C29.9229 2.95744 29.8475 2.77577 29.7134 2.64182C29.5792 2.50787 29.3973 2.43262 29.2075 2.43262H25.8691C25.6794 2.43262 25.4974 2.50787 25.3633 2.64182C25.2291 2.77577 25.1537 2.95744 25.1537 3.14688V7.46873L19.8164 3.08438C19.3042 2.66355 18.6615 2.43346 17.9982 2.43346C17.3349 2.43346 16.6921 2.66355 16.1799 3.08438L1.0897 15.4928C1.01726 15.5526 0.957328 15.626 0.913328 15.709C0.869327 15.7919 0.842121 15.8826 0.833263 15.976C0.824405 16.0695 0.834069 16.1637 0.861703 16.2534C0.889337 16.3431 0.9344 16.4264 0.994316 16.4987L2.51449 18.3439C2.57424 18.4164 2.64774 18.4765 2.73077 18.5207C2.8138 18.5648 2.90474 18.5922 2.99838 18.6012C3.09201 18.6102 3.18651 18.6007 3.27646 18.5732C3.36641 18.5457 3.45004 18.5007 3.52257 18.4409L17.5451 6.90923C17.6743 6.80526 17.8352 6.74856 18.0012 6.74856C18.1671 6.74856 18.328 6.80526 18.4572 6.90923L32.4804 18.4409C32.5528 18.5007 32.6363 18.5457 32.7261 18.5733C32.8159 18.6009 32.9103 18.6106 33.0039 18.6017C33.0974 18.5929 33.1883 18.5657 33.2714 18.5218C33.3544 18.4779 33.428 18.418 33.4879 18.3457L35.008 16.5005C35.0679 16.4278 35.1128 16.344 35.1401 16.2539C35.1674 16.1639 35.1766 16.0693 35.1672 15.9756C35.1578 15.882 35.1299 15.7911 35.0852 15.7083C35.0405 15.6254 34.9798 15.5522 34.9067 15.4928Z" fill="#F52A67"/>
</g>
<defs>
<clipPath id="clip0_35_104">
<rect width="34.338" height="30.475" fill="white" transform="translate(0.830978 0.525024)"/>
</clipPath>
</defs>
</svg>
