<svg width="19" height="22" viewBox="0 0 19 22" fill="none" xmlns="http://www.w3.org/2000/svg">
<g clip-path="url(#clip0_44_593)">
<path d="M10.8572 1.375V2.2C13.9532 2.83723 16.2857 5.61172 16.2857 8.9375V9.74531C16.2857 11.7691 17.0195 13.7156 18.3427 15.2281L18.6565 15.5848C19.0128 15.993 19.1018 16.5688 18.8813 17.0629C18.6607 17.557 18.1773 17.875 17.6429 17.875H1.35716C0.822789 17.875 0.338076 17.557 0.119152 17.0629C-0.0997721 16.5688 -0.0122067 15.993 0.342869 15.5848L0.657387 15.2281C1.9823 13.7156 2.71431 11.7691 2.71431 9.74531V8.9375C2.71431 5.61172 5.00873 2.83723 8.14288 2.2V1.375C8.14288 0.615742 8.74936 0 9.50003 0C10.2507 0 10.8572 0.615742 10.8572 1.375ZM9.50003 22C8.77904 22 8.08775 21.7121 7.57882 21.1965C7.06989 20.6809 6.78574 19.9418 6.78574 19.25H12.2143C12.2143 19.9418 11.9302 20.6809 11.4212 21.1965C10.9123 21.7121 10.1828 22 9.50003 22Z" fill="#F52A67"/>
</g>
<defs>
<clipPath id="clip0_44_593">
<rect width="19" height="22" fill="white"/>
</clipPath>
</defs>
</svg>

