<svg width="20" height="18" viewBox="0 0 20 18" fill="none" xmlns="http://www.w3.org/2000/svg">
<path d="M9.99998 6.8125C9.63197 6.81832 9.26668 6.87752 8.91526 6.98828C9.07782 7.27773 9.16437 7.60454 9.16665 7.9375C9.16665 8.19604 9.11635 8.45205 9.01864 8.69091C8.92092 8.92977 8.77769 9.1468 8.59713 9.32962C8.41657 9.51243 8.20222 9.65745 7.96631 9.75639C7.7304 9.85533 7.47755 9.90625 7.2222 9.90625C6.89335 9.90394 6.57058 9.81631 6.2847 9.65172C6.05916 10.4437 6.08545 11.2875 6.35984 12.0635C6.63424 12.8396 7.14283 13.5085 7.81358 13.9756C8.48433 14.4427 9.28323 14.6843 10.0971 14.6661C10.911 14.648 11.6986 14.371 12.3484 13.8744C12.9982 13.3779 13.4772 12.6869 13.7176 11.8994C13.9579 11.1119 13.9475 10.2678 13.6877 9.48658C13.4279 8.70541 12.932 8.02679 12.2701 7.54686C11.6083 7.06693 10.8141 6.81001 9.99998 6.8125ZM19.8791 10.2367C17.9962 6.51684 14.2684 4 9.99998 4C5.73158 4 2.00276 6.51859 0.120814 10.2371C0.0413845 10.3962 0 10.5719 0 10.7502C0 10.9284 0.0413845 11.1042 0.120814 11.2633C2.0038 14.9832 5.73158 17.5 9.99998 17.5C14.2684 17.5 17.9972 14.9814 19.8791 11.2629C19.9586 11.1038 20 10.9281 20 10.7498C20 10.5716 19.9586 10.3958 19.8791 10.2367ZM9.99998 15.8125C6.57463 15.8125 3.43436 13.8789 1.73852 10.75C3.43436 7.62109 6.57429 5.6875 9.99998 5.6875C13.4257 5.6875 16.5656 7.62109 18.2614 10.75C16.566 13.8789 13.4257 15.8125 9.99998 15.8125Z" fill="url(#paint0_linear_11_109)"/>
<defs>
<linearGradient id="paint0_linear_11_109" x1="0.666665" y1="4.36" x2="11.5048" y2="21.8543" gradientUnits="userSpaceOnUse">
<stop stop-color="#B7F7E4"/>
<stop offset="0.0810791" stop-color="#8EE8CD"/>
<stop offset="0.213292" stop-color="#20E8AC"/>
<stop offset="0.406273" stop-color="#F52A67"/>
<stop offset="0.621192" stop-color="#B11E75"/>
<stop offset="1" stop-color="#220694"/>
</linearGradient>
</defs>
</svg>
